<?xml version="1.0" standalone="no"?>
<!DOCTYPE svg PUBLIC "-//W3C//DTD SVG 20010904//EN"
 "http://www.w3.org/TR/2001/REC-SVG-20010904/DTD/svg10.dtd">
<svg version="1.0" xmlns="http://www.w3.org/2000/svg"
 width="105.000000pt" height="97.000000pt" viewBox="0 0 105.000000 97.000000"
 preserveAspectRatio="xMidYMid meet">

<g transform="translate(0.000000,97.000000) scale(0.100000,-0.100000)"
fill="#1565c0" stroke="none">
<path d="M389 862 c-187 -76 -294 -259 -262 -447 15 -86 44 -145 109 -214 61
-67 132 -105 227 -122 204 -38 408 96 463 305 48 179 -46 375 -221 461 -53 26
-72 30 -165 32 -84 3 -114 -1 -151 -15z m276 -91 c189 -89 249 -317 128 -483
-57 -78 -62 -70 -65 102 l-3 149 -32 -20 -33 -21 0 -158 c0 -88 -3 -161 -7
-163 -5 -3 -23 -8 -40 -12 l-33 -7 0 147 c0 81 -3 145 -7 143 -5 -2 -20 -10
-35 -17 l-28 -14 0 -129 c0 -126 0 -128 -22 -128 -65 1 -68 5 -68 101 0 49 -3
89 -6 89 -3 0 -19 -8 -35 -17 -25 -15 -28 -23 -31 -72 l-3 -56 -47 48 c-27 26
-48 53 -48 60 0 6 86 64 191 127 308 186 315 190 298 190 -8 0 -62 7 -119 15
-56 9 -105 14 -107 11 -3 -3 4 -18 16 -34 12 -17 21 -34 21 -40 0 -13 -329
-196 -338 -187 -4 4 -7 41 -7 83 0 57 6 89 22 124 60 131 159 196 303 197 63
1 85 -4 135 -28z"/>
</g>
</svg>
