<svg xmlns="http://www.w3.org/2000/svg" width="763.056" height="458" viewBox="0 0 763.056 458">
  <g id="Stock_SVG" data-name="Stock SVG" transform="translate(0)">
    <path id="Path_1" data-name="Path 1" d="M266.472,317a48,48,0,1,1,48-48,48,48,0,0,1-48,48Zm0-94a46,46,0,1,0,46,46,46,46,0,0,0-46-46Z" transform="translate(-218.472 -221)" fill="#f2f2f2"/>
    <path id="Path_2" data-name="Path 2" d="M592.472,289a24,24,0,1,1,24-24,24,24,0,0,1-24,24Zm0-46a22,22,0,1,0,22,22,22,22,0,0,0-22-22Z" transform="translate(-218.472 -221)" fill="#f2f2f2"/>
    <path id="Path_3" data-name="Path 3" d="M761.472,406a27,27,0,1,1,27-27,27,27,0,0,1-27,27Zm0-52a25,25,0,1,0,25,25A25,25,0,0,0,761.472,354Z" transform="translate(-218.472 -221)" fill="#f2f2f2"/>
    <path id="Path_4" data-name="Path 4" d="M980.528,679h-225a1,1,0,0,1,0-2h225a1,1,0,0,1,0,2Z" transform="translate(-218.472 -221)" fill="#ccc"/>
    <circle id="Ellipse_2" data-name="Ellipse 2" cx="24.561" cy="24.561" r="24.561" transform="translate(616.356 104.125)" fill="#ffb8b8"/>
    <path id="Path_5" data-name="Path 5" d="M643.465,420.343l-11.608,3.942-20.733-42.9,17.133-5.819Z" fill="#ffb8b8"/>
    <path id="Path_6" data-name="Path 6" d="M843.071,642.981h23.644v14.887h-38.53A14.887,14.887,0,0,1,843.071,642.981Z" transform="translate(-382.632 86.105) rotate(-18.76)" fill="#2f2e41"/>
    <path id="Path_7" data-name="Path 7" d="M669.694,444.575l-12.244.615-8.2-46.935,18.072-.909Z" fill="#ffb8b8"/>
    <path id="Path_8" data-name="Path 8" d="M867.368,662.9h23.644v14.887H852.481A14.887,14.887,0,0,1,867.368,662.9Z" transform="translate(-251.02 -176.398) rotate(-2.877)" fill="#2f2e41"/>
    <path id="Path_9" data-name="Path 9" d="M815.3,509.63a10.056,10.056,0,0,0-.468-15.412l11.674-33.774-17.992,4.6-8.327,31.368A10.11,10.11,0,0,0,815.3,509.63Z" transform="translate(-218.472 -221)" fill="#ffb8b8"/>
    <path id="Path_10" data-name="Path 10" d="M887.021,651.424a4.557,4.557,0,0,1-.474-.025l-16.621-1.76a4.472,4.472,0,0,1-4-3.974l-12.844-114.51L843.79,562.49l17.329,61.583a4.5,4.5,0,0,1-3.818,5.689L840.453,631.7a4.523,4.523,0,0,1-4.863-3.315l-18.409-69.3a4.483,4.483,0,0,1-.111-1.748l8.274-62.2,61.714,4.949,4.462,146.7a4.5,4.5,0,0,1-4.5,4.638Z" transform="translate(-218.472 -221)" fill="#2f2e41"/>
    <path id="Path_11" data-name="Path 11" d="M865.688,510.719c-20.676,0-44.084-7.989-45.5-8.479l-.41-.142L843.1,382.413l.429.018c9.244.375,34.469.567,34.723.569l.453,0,9.723,105.619,1.738,15.449-.213.172C884.006,509.052,875.132,510.719,865.688,510.719Z" transform="translate(-218.472 -221)" fill="#1565c0"/>
    <path id="Path_12" data-name="Path 12" d="M828.336,500.375,813.747,494.5l7.436-89.944a14.857,14.857,0,0,1,6.474-11.1l7.677-5.225h0a4.869,4.869,0,0,1,4.827-6.24l2.2.071a2.5,2.5,0,0,1,3.827,2.661l-.483,9.529Z" transform="translate(-218.472 -221)" fill="#2f2e41"/>
    <path id="Path_13" data-name="Path 13" d="M820.974,484.251l-19.049-.8,6.171-39.692,5.113-37.349a8.924,8.924,0,0,1,11.578-7.846h0a8.917,8.917,0,0,1,6.174,9.647l-5.18,40.467Z" transform="translate(-218.472 -221)" fill="#2f2e41"/>
    <path id="Path_14" data-name="Path 14" d="M851.136,501.751l-.129-.4c-.088-.274-8.673-27.811,5.691-60.672l7.2-35.826,6.156-22.495a2.69,2.69,0,0,1,1.631-1.773,2.477,2.477,0,0,1,2.649.68h0a17.2,17.2,0,0,1,12.859,1.286l8.645,4.554a9.815,9.815,0,0,1,4.982,10.923l-11.815,50.423,5.744,47.1Z" transform="translate(-218.472 -221)" fill="#2f2e41"/>
    <path id="Path_15" data-name="Path 15" d="M863.716,482.338a10.056,10.056,0,0,0,11.118-10.684l26.756-19.821-9.353-4.434-28.851,14.862a10.11,10.11,0,0,0,.33,20.077Z" transform="translate(-218.472 -221)" fill="#ffb8b8"/>
    <path id="Path_16" data-name="Path 16" d="M880.491,473.465,871.454,456.6l22.287-14.668-10.876-39.01a11.8,11.8,0,0,1,9.029-14.731h0a11.827,11.827,0,0,1,13.5,7.764l14.675,43.135a4.5,4.5,0,0,1-1.512,5.013Z" transform="translate(-218.472 -221)" fill="#2f2e41"/>
    <path id="Path_17" data-name="Path 17" d="M861.127,354.895c-2.944.383-5.165-2.629-6.2-5.414s-1.815-6.027-4.375-7.531c-3.5-2.055-7.972.417-11.971-.261-4.516-.766-7.453-5.552-7.683-10.127s1.591-8.975,3.377-13.194l.624,5.242a10.4,10.4,0,0,1,4.543-9.087l-.8,7.692a8.164,8.164,0,0,1,9.392-6.756l-.127,4.583c5.216-.62,10.479-1.241,15.711-.769s10.5,2.128,14.466,5.574c5.932,5.154,8.1,13.641,7.371,21.465s-3.957,15.175-7.323,22.275c-.847,1.786-2.018,3.8-3.982,4.03-1.765.2-3.379-1.271-3.928-2.96a10.729,10.729,0,0,1,.048-5.271c.5-2.637,1.122-5.333.655-7.976s-2.368-5.254-5.032-5.578-5.39,2.721-4.109,5.079Z" transform="translate(-218.472 -221)" fill="#2f2e41"/>
    <path id="Path_18" data-name="Path 18" d="M539.781,624.577l-9.561-4.026-6.559-47.928h-87.34l-7.109,47.732-8.554,4.277a2.031,2.031,0,0,0,.908,3.848H538.994a2.031,2.031,0,0,0,.787-3.9Z" transform="translate(-218.472 -221)" fill="#e6e6e6"/>
    <path id="Path_19" data-name="Path 19" d="M694.991,579H265.953a8.5,8.5,0,0,1-8.481-8.5V510h446v60.5a8.5,8.5,0,0,1-8.481,8.5Z" transform="translate(-218.472 -221)" fill="#ccc"/>
    <path id="Path_20" data-name="Path 20" d="M703.92,538.594H257.08V279.727a10.258,10.258,0,0,1,10.247-10.247H693.673a10.259,10.259,0,0,1,10.247,10.247Z" transform="translate(-218.472 -221)" fill="#3f3d56"/>
    <path id="Path_21" data-name="Path 21" d="M677.232,519.8H283.768a7.908,7.908,0,0,1-7.9-7.9V296.168a7.909,7.909,0,0,1,7.9-7.9H677.232a7.909,7.909,0,0,1,7.9,7.9V511.9a7.908,7.908,0,0,1-7.9,7.9Z" transform="translate(-218.472 -221)" fill="#fff"/>
    <path id="Path_22" data-name="Path 22" d="M673.528,628.98h-381a1,1,0,1,1,0-2h381a1,1,0,0,1,0,2Z" transform="translate(-218.472 -221)" fill="#ccc"/>
    <path id="Path_23" data-name="Path 23" d="M640.268,493H320.732a1,1,0,0,1-1-1V338.847a1,1,0,0,1,2,0V491H640.267a1,1,0,0,1,0,2Z" transform="translate(-218.472 -221)" fill="#3f3d56"/>
    <path id="Path_24" data-name="Path 24" d="M389,482H359.94a2.972,2.972,0,0,1-2.969-2.968V438.968A2.972,2.972,0,0,1,359.94,436H389a2.972,2.972,0,0,1,2.968,2.968v40.064A2.972,2.972,0,0,1,389,482Z" transform="translate(-218.472 -221)" fill="#1565c0"/>
    <path id="Path_25" data-name="Path 25" d="M442,482H412.94a2.972,2.972,0,0,1-2.969-2.968V400.968A2.972,2.972,0,0,1,412.94,398H442a2.972,2.972,0,0,1,2.969,2.968v78.064A2.972,2.972,0,0,1,442,482Z" transform="translate(-218.472 -221)" fill="#1565c0"/>
    <path id="Path_26" data-name="Path 26" d="M495,482H465.94a2.972,2.972,0,0,1-2.969-2.968V438.968A2.972,2.972,0,0,1,465.94,436H495a2.972,2.972,0,0,1,2.969,2.968v40.064A2.972,2.972,0,0,1,495,482Z" transform="translate(-218.472 -221)" fill="#1565c0"/>
    <path id="Path_27" data-name="Path 27" d="M548,482H518.94a2.907,2.907,0,0,1-2.968-2.834V385.834A2.907,2.907,0,0,1,518.94,383H548a2.907,2.907,0,0,1,2.969,2.834v93.332A2.907,2.907,0,0,1,548,482Z" transform="translate(-218.472 -221)" fill="#1565c0"/>
    <path id="Path_28" data-name="Path 28" d="M601,482H571.94a2.972,2.972,0,0,1-2.969-2.968V358.968A2.972,2.972,0,0,1,571.94,356H601a2.972,2.972,0,0,1,2.969,2.968V479.032A2.972,2.972,0,0,1,601,482Z" transform="translate(-218.472 -221)" fill="#1565c0"/>
    <circle id="Ellipse_3" data-name="Ellipse 3" cx="6" cy="6" r="6" transform="translate(150 191)" fill="#3f3d56"/>
    <circle id="Ellipse_4" data-name="Ellipse 4" cx="6" cy="6" r="6" transform="translate(203 152)" fill="#3f3d56"/>
    <circle id="Ellipse_5" data-name="Ellipse 5" cx="6" cy="6" r="6" transform="translate(256 191)" fill="#3f3d56"/>
    <circle id="Ellipse_6" data-name="Ellipse 6" cx="6" cy="6" r="6" transform="translate(309 133)" fill="#3f3d56"/>
    <circle id="Ellipse_7" data-name="Ellipse 7" cx="6" cy="6" r="6" transform="translate(362 111)" fill="#3f3d56"/>
    <path id="Path_29" data-name="Path 29" d="M262.126,198.344,209,158.552,156.6,197.8l-1.2-1.6L209,156.053l52.874,39.6,52.541-57.5.211-.086,53-21.354.748,1.855-52.789,21.269Z" fill="#3f3d56"/>
  </g>
</svg>
